#N canvas 294 -6 775 745 12;
#X declare -lib Gem;
#X obj 11 9 declare -lib Gem;
#X obj 559 150 gemwin;
#X msg 560 124 create \, 1;
#X obj 189 85 pix_video;
#X obj 344 188 pix_resize;
#X obj 189 56 gemhead;
#X obj 217 618 pix_texture;
#X obj 217 644 square 4;
#X msg 217 591 quality 0;
#X obj 409 263 pix_background;
#X msg 652 468 reset;
#X msg 512 173 \$1 \$1 \$1;
#X floatatom 512 149 5 0 0 0 - - - 0;
#X msg 512 130 0.25;
#X msg 345 156 dimen 16 16;
#X obj 188 137 pix_buffer_write cap;
#X obj 87 209 pix_buffer cap 1;
#X obj 171 343 gemhead;
#X obj 161 402 pix_buffer_read cap;
#X msg 296 371 0;
#X obj 393 445 pix_texture;
#X msg 398 414 quality 0;
#X msg 325 110 0;
#X obj 293 338 bang;
#X obj 325 85 bang;
#X obj 138 435 pix_delay;
#X obj 132 475 pix_subtract;
#X msg 235 367 10;
#X obj 272 498 pix_resize;
#X msg 307 466 dimen 1 1;
#X obj 256 537 pix_data;
#X floatatom 309 567 25 0 0 0 - - - 0;
#X obj 601 215 line;
#X obj 603 241 * 10;
#X obj 603 274 vsl 20 170 0 1 0 0 empty empty empty 0 -9 0 12 #fcfcfc #000000 #000000 0 1;
#X obj 647 307 tgl 20 0 empty empty empty 0 -10 0 12 #fcfcfc #000000 #000000 0 1;
#X obj 648 388 delay 2000;
#X obj 647 336 change;
#X obj 647 364 sel 1;
#X obj 648 411 spigot;
#X obj 652 438 bng 20 250 50 0 empty empty empty 0 -10 0 12 #fcfcfc #000000 #000000;
#X obj 398 484 square 4;
#X msg 601 188 \$1 2000;
#X obj 388 372 pix_equal;
#X msg 460 331 0.1 0.1 0.1 0.1;
#X msg 480 364 1 1 1 1;
#X obj 452 73 loadbang;
#X obj 244 309 loadbang;
#X obj 635 284 < 0.2;
#X connect 2 0 1 0;
#X connect 3 0 4 0;
#X connect 3 0 15 0;
#X connect 4 0 9 0;
#X connect 5 0 3 0;
#X connect 5 0 24 0;
#X connect 6 0 7 0;
#X connect 8 0 6 0;
#X connect 9 0 43 0;
#X connect 10 0 9 0;
#X connect 11 0 9 1;
#X connect 12 0 11 0;
#X connect 13 0 12 0;
#X connect 14 0 4 0;
#X connect 17 0 18 0;
#X connect 17 0 23 0;
#X connect 18 0 25 0;
#X connect 18 0 26 1;
#X connect 19 0 18 1;
#X connect 20 0 41 0;
#X connect 21 0 20 0;
#X connect 22 0 15 1;
#X connect 23 0 19 0;
#X connect 23 0 30 0;
#X connect 24 0 22 0;
#X connect 25 0 26 0;
#X connect 26 0 28 0;
#X connect 27 0 25 1;
#X connect 28 0 30 1;
#X connect 28 0 6 0;
#X connect 29 0 28 0;
#X connect 30 2 31 0;
#X connect 31 0 42 0;
#X connect 32 0 33 0;
#X connect 33 0 34 0;
#X connect 33 0 48 0;
#X connect 35 0 37 0;
#X connect 36 0 39 0;
#X connect 37 0 38 0;
#X connect 37 0 39 1;
#X connect 38 0 36 0;
#X connect 39 0 40 0;
#X connect 40 0 10 0;
#X connect 42 0 32 0;
#X connect 43 0 20 0;
#X connect 44 0 43 1;
#X connect 45 0 43 2;
#X connect 46 0 14 0;
#X connect 46 0 13 0;
#X connect 46 0 2 0;
#X connect 46 0 44 0;
#X connect 46 0 45 0;
#X connect 47 0 27 0;
#X connect 47 0 29 0;
#X connect 47 0 8 0;
#X connect 47 0 21 0;
#X connect 48 0 35 0;
